<svg width="48" height="48" viewBox="0 0 48 48" fill="none" xmlns="http://www.w3.org/2000/svg">
<circle cx="24" cy="24" r="23.4" fill="#06AAF9" stroke="white" stroke-width="1.2"/>
<path fill-rule="evenodd" clip-rule="evenodd" d="M33.0732 15.1684C33.3615 15.047 33.6771 15.0052 33.9871 15.0472C34.297 15.0892 34.5901 15.2135 34.8357 15.4072C35.0813 15.6008 35.2705 15.8568 35.3837 16.1485C35.4968 16.4401 35.5297 16.7567 35.4789 17.0654L32.8329 33.1152C32.5762 34.6634 30.8776 35.5512 29.4577 34.78C28.2701 34.1349 26.5061 33.1409 24.9194 32.1037C24.1261 31.5845 21.6959 29.922 21.9946 28.739C22.2512 27.7275 26.3346 23.9265 28.6679 21.6667C29.5837 20.7789 29.1661 20.2667 28.0846 21.0834C25.3989 23.111 21.0869 26.1945 19.6612 27.0625C18.4036 27.8279 17.7479 27.9585 16.9639 27.8279C15.5336 27.5899 14.2071 27.2212 13.1244 26.772C11.6614 26.1654 11.7326 24.154 13.1232 23.5684L33.0732 15.1684Z" fill="white"/>
</svg>
